<svg width="1523" height="1377" xmlns="http://www.w3.org/2000/svg" xmlns:xlink="http://www.w3.org/1999/xlink" xml:space="preserve" overflow="hidden"><defs><clipPath id="clip0"><rect x="1446" y="549" width="1523" height="1377"/></clipPath></defs><g clip-path="url(#clip0)" transform="translate(-1446 -549)"><rect x="1704" y="549" width="992" height="1377" fill="#FFFFFF"/><text font-family="MiSans Heavy,MiSans Heavy_MSFontService,sans-serif" font-weight="700" font-size="220" transform="matrix(1 0 0 1 1578.96 1174)">蜂</text><text font-family="MiSans Heavy,MiSans Heavy_MSFontService,sans-serif" font-weight="700" font-size="220" transform="matrix(1 0 0 1 1864.84 1174)">群</text><text fill="#CA0000" font-family="DOUYU Font,DOUYU Font_MSFontService,sans-serif" font-weight="400" font-size="220" transform="matrix(1 0 0 1 2150.73 1174)">克</text><text fill="#CA0000" font-family="DOUYU Font,DOUYU Font_MSFontService,sans-serif" font-weight="400" font-size="220" transform="matrix(1 0 0 1 2535.16 1174)">隆</text><text font-family="MiSans Heavy,MiSans Heavy_MSFontService,sans-serif" font-weight="700" font-size="147" transform="matrix(1 0 0 1 1579.53 1441)">S</text><text font-family="MiSans Heavy,MiSans Heavy_MSFontService,sans-serif" font-weight="700" font-size="147" transform="matrix(1 0 0 1 1700.42 1441)">w</text><text font-family="MiSans Heavy,MiSans Heavy_MSFontService,sans-serif" font-weight="700" font-size="147" transform="matrix(1 0 0 1 1859.69 1441)">a</text><text font-family="MiSans Heavy,MiSans Heavy_MSFontService,sans-serif" font-weight="700" font-size="147" transform="matrix(1 0 0 1 1968.54 1441)">r</text><text font-family="MiSans Heavy,MiSans Heavy_MSFontService,sans-serif" font-weight="700" font-size="147" transform="matrix(1 0 0 1 2059.64 1441)">m </text><text fill="#0B5FD1" font-family="MiSans Heavy,MiSans Heavy_MSFontService,sans-serif" font-weight="700" font-size="165" transform="matrix(1 0 0 1 2245.26 1441)">C</text><text fill="#0B5FD1" font-family="MiSans Heavy,MiSans Heavy_MSFontService,sans-serif" font-weight="700" font-size="64" transform="matrix(1 0 0 1 2371.87 1441)"> </text><text fill="#0B5FD1" font-family="MiSans Heavy,MiSans Heavy_MSFontService,sans-serif" font-weight="700" font-size="165" transform="matrix(1 0 0 1 2391.35 1441)">l</text><text fill="#0B5FD1" font-family="MiSans Heavy,MiSans Heavy_MSFontService,sans-serif" font-weight="700" font-size="64" transform="matrix(1 0 0 1 2444.06 1441)"> </text><text fill="#0B5FD1" font-family="MiSans Heavy,MiSans Heavy_MSFontService,sans-serif" font-weight="700" font-size="165" transform="matrix(1 0 0 1 2463.54 1441)">o</text><text fill="#0B5FD1" font-family="MiSans Heavy,MiSans Heavy_MSFontService,sans-serif" font-weight="700" font-size="64" transform="matrix(1 0 0 1 2571.25 1441)"> </text><text fill="#0B5FD1" font-family="MiSans Heavy,MiSans Heavy_MSFontService,sans-serif" font-weight="700" font-size="165" transform="matrix(1 0 0 1 2590.73 1441)">n</text><text fill="#0B5FD1" font-family="MiSans Heavy,MiSans Heavy_MSFontService,sans-serif" font-weight="700" font-size="64" transform="matrix(1 0 0 1 2697.29 1441)"> </text><text fill="#0B5FD1" font-family="MiSans Heavy,MiSans Heavy_MSFontService,sans-serif" font-weight="700" font-size="165" transform="matrix(1 0 0 1 2716.77 1441)">e</text><text fill="#0B5FD1" font-family="MiSans Heavy,MiSans Heavy_MSFontService,sans-serif" font-weight="700" font-size="165" transform="matrix(1 0 0 1 2820.47 1441)"> </text></g></svg>